<svg width="519" height="593" viewBox="0 0 519 593" fill="none" xmlns="http://www.w3.org/2000/svg">
<path d="M87.612 83.9508C87.612 130.457 105.597 208.876 37.6825 293.648C-28.6533 376.45 62.6069 114.254 154.261 98.0256C261.398 79.0554 76.7582 518.301 67.2377 428.909C61.9113 378.898 216.884 116.399 260.475 159.991C315.929 215.445 170.519 532.191 136.565 526.981C76.6659 517.791 290.897 153.446 351.684 184.826C424.168 222.244 304.694 471.949 249.255 485.343C204.904 496.057 370.32 254.065 481.012 309.449" stroke="black" stroke-width="8" stroke-linecap="round"/>
<path d="M488.507 289.989C489.588 288.054 492.546 289.052 492.233 291.246L491.657 295.288C491.469 296.605 492.594 297.734 493.912 297.552L509.626 295.372C511.746 295.078 512.784 297.871 510.987 299.033L499.309 306.583C497.955 307.459 498.141 309.496 499.632 310.111L507.582 313.393C509.409 314.148 509.151 316.813 507.212 317.203L502.01 318.248C500.834 318.484 500.129 319.694 500.503 320.833L501.98 325.327C502.544 327.044 500.721 328.569 499.131 327.711L492.787 324.291C491.159 323.413 489.314 325.026 489.966 326.756L493.455 336.022C494.212 338.032 491.7 339.66 490.175 338.147L480.312 328.364C479.676 327.733 478.698 327.602 477.918 328.043L466.799 334.334C464.946 335.382 462.956 333.195 464.174 331.449L470.723 322.062C471.322 321.204 471.157 320.028 470.345 319.367L458.928 310.073C457.468 308.885 458.308 306.522 460.19 306.522H468.986C469.981 306.522 470.824 305.791 470.966 304.807L472.345 295.245C472.643 293.176 475.514 292.894 476.21 294.864L478.444 301.188C479.018 302.811 481.237 303 482.076 301.497L488.507 289.989Z" fill="#CD4631"/>
</svg>
